<svg xmlns="http://www.w3.org/2000/svg" xmlns:xlink="http://www.w3.org/1999/xlink" width="1920" height="1080" viewBox="0 0 1920 1080">
  <defs>
    <radialGradient id="radial-gradient" cx="0.411" cy="0.627" r="0.628" gradientTransform="matrix(0.647, 0.763, -0.688, 0.583, 0.577, -0.052)" gradientUnits="objectBoundingBox">
      <stop offset="0" stop-color="#2196f3"/>
      <stop offset="1" stop-color="#114b7a"/>
    </radialGradient>
    <radialGradient id="radial-gradient-2" cx="0.377" cy="0.834" r="0.954" gradientTransform="matrix(0.538, -0.843, 0.543, 0.347, -0.279, 0.862)" gradientUnits="objectBoundingBox">
      <stop offset="0" stop-color="#febd01"/>
      <stop offset="1" stop-color="#7f5f01"/>
    </radialGradient>
    <clipPath id="clip-Web_1920_1">
      <rect width="1920" height="1080"/>
    </clipPath>
  </defs>
  <g id="Web_1920_1" data-name="Web 1920 – 1" clip-path="url(#clip-Web_1920_1)">
    <path id="Path_5" data-name="Path 5" d="M1223.934,66.579s185.385,9.331,145.2,149.293,141.307-107.971,247.612-58.651-6.482-55.985,6.482-90.642,77.784-113.3,88.155-14.663,98.526,267.928,80.377,105.305,238.537-257.264,45.374-286.59S1414.5-149.363,1300.421-49.39,1223.934,66.579,1223.934,66.579Z" transform="matrix(-0.996, -0.087, 0.087, -0.996, 3205.238, 1174.073)" fill="#9d7d21"/>
    <path id="Path_3" data-name="Path 3" d="M29.883,727.843S28.7,741.9,89.217,762.47s-26.107-96,20.174-86.4-17.8,115.195,96.121,139.879,104.428,109.709,27.294,54.855S66.67,794.011,135.5,854.351s132.908,85.024,183.936,65.826,117.482-72.682,182.749-41.141S730.026,810.468,629.158,995.6,293.327,1205.42,126,1113.539s-399.912,94.624-346.511-193.362S-408,592.421-278.654,486.826s98.495-150.85,207.669-135.765S29.883,727.843,29.883,727.843Z" transform="translate(171.997 89.671)" fill="#1b5a8c"/>
    <path id="Path_2" data-name="Path 2" d="M29.883,727.843S28.7,741.9,89.217,762.47s-26.107-96,20.174-86.4-17.8,115.195,96.121,139.879,104.428,109.709,27.294,54.855S66.67,794.011,135.5,854.351s132.908,85.024,183.936,65.826,117.482-72.682,182.749-41.141S730.026,810.468,629.158,995.6,293.327,1205.42,126,1113.539s-399.912,94.624-346.511-193.362S-408,592.421-278.654,486.826s98.495-150.85,207.669-135.765S29.883,727.843,29.883,727.843Z" transform="translate(97.788 107.747)" fill="url(#radial-gradient)"/>
    <path id="Path_4" data-name="Path 4" d="M1223.934,66.579s185.385,9.331,145.2,149.293,141.307-107.971,247.612-58.651-6.482-55.985,6.482-90.642,77.784-113.3,88.155-14.663,98.526,267.928,80.377,105.305,238.537-257.264,45.374-286.59S1414.5-149.363,1300.421-49.39,1223.934,66.579,1223.934,66.579Z" transform="matrix(-0.996, -0.087, 0.087, -0.996, 3279.816, 1193.648)" fill="url(#radial-gradient-2)"/>
  </g>
</svg>
